<?xml version="1.0" encoding="UTF-8" standalone="no"?>
<svg
   width="700pt"
   height="700pt"
   version="1.1"
   viewBox="0 0 700 700"
   id="svg4"
   sodipodi:docname="hamburger-menu.svg"
   inkscape:version="1.2.2 (b0a8486541, 2022-12-01)"
   xmlns:inkscape="http://www.inkscape.org/namespaces/inkscape"
   xmlns:sodipodi="http://sodipodi.sourceforge.net/DTD/sodipodi-0.dtd"
   xmlns="http://www.w3.org/2000/svg"
   xmlns:svg="http://www.w3.org/2000/svg">
  <defs
     id="defs8" />
  <sodipodi:namedview
     id="namedview6"
     pagecolor="#ffffff"
     bordercolor="#999999"
     borderopacity="1"
     inkscape:showpageshadow="0"
     inkscape:pageopacity="0"
     inkscape:pagecheckerboard="0"
     inkscape:deskcolor="#d1d1d1"
     inkscape:document-units="pt"
     showgrid="false"
     inkscape:zoom="1.1003571"
     inkscape:cx="466.66667"
     inkscape:cy="466.66667"
     inkscape:window-width="2558"
     inkscape:window-height="1404"
     inkscape:window-x="0"
     inkscape:window-y="17"
     inkscape:window-maximized="1"
     inkscape:current-layer="svg4" />
  <path
     d="m90.266 60.219h-0.28125c-11.043 0-19.984 8.9414-19.984 19.984s8.9414 19.984 19.984 19.984h0.29688 519.45 0.28125c11.043 0 19.984-8.9414 19.984-19.984s-8.9414-19.984-19.984-19.984h-0.29688zm0 199.8h-0.28125c-11.043 0-19.984 8.9414-19.984 19.984s8.9414 19.984 19.984 19.984h0.29688 519.45 0.28125c11.043 0 19.984-8.9414 19.984-19.984s-8.9414-19.984-19.984-19.984h-0.29688zm0 199.8h-0.28125c-11.043 0-19.984 8.9414-19.984 19.984s8.9414 19.984 19.984 19.984h0.29688 519.45 0.28125c11.043 0 19.984-8.9414 19.984-19.984s-8.9414-19.984-19.984-19.984h-0.29688z"
     id="path2"
     style="fill:#ffffff" />
</svg>
