<svg width="500" height="495" viewBox="0 0 500 495" fill="none" xmlns="http://www.w3.org/2000/svg">
<path d="M67.2222 480L354.444 195.833L485 325M67.2222 480H432.778C461.619 480 485 456.868 485 428.333V66.6667C485 38.132 461.619 15 432.778 15H67.2222C38.3807 15 15 38.132 15 66.6667V428.333C15 456.868 38.3807 480 67.2222 480ZM197.778 157.083C197.778 178.484 180.242 195.833 158.611 195.833C136.98 195.833 119.444 178.484 119.444 157.083C119.444 135.682 136.98 118.333 158.611 118.333C180.242 118.333 197.778 135.682 197.778 157.083Z" stroke="white" stroke-width="30" stroke-linecap="round" stroke-linejoin="round"/>
</svg>
