<svg enable-background="new 0 0 700 700" viewBox="0 0 700 700" xmlns="http://www.w3.org/2000/svg"><path d="m128.8 552.7c0-.3 0-.5 0-.8v-248.6-.3c.3-17.9 15.9-33.3 40.9-43.8 22.7-9.5 53.8-15.4 88-15.4 20 0 38.9 2 55.8 5.6v-101.7c0-22.2 22.8-36.8 40.9-44.3 22.7-9.5 53.8-15.4 88-15.4s65.3 5.9 88 15.4l.5.3c17.9 7.6 40.4 22.1 40.4 44.1v368.9c0 22.4-22.6 36.9-40.9 44.6-22.7 9.5-53.8 15.4-88 15.4-12.3 0-24.4-.8-36-2.3-8.8-1.1-17.2-2.6-25-4.5-6.6 10.6-19 19.8-35.7 26.8-22.7 9.5-53.8 15.4-88 15.4s-65.3-5.9-88-15.4l-.5-.3c-24.8-10.5-40.1-25.9-40.4-43.7zm237.6 3.3c.4-1.5.6-2.5.6-4v-87.6c-5.9 4.4-13.1 8.4-21.3 11.8-22.7 9.5-53.8 15.4-88 15.4s-65.3-5.9-88-15.4l-.5-.3c-7.9-3.4-14.9-7.3-20.8-11.6v87.9c0 9.4 10.8 18.7 28.4 26.1l.5.2c20.4 8.6 48.8 13.9 80.4 13.9s60-5.3 80.4-13.9c15.5-6.5 25.8-14.4 28.3-22.5zm0-120.4v-.1-.1-.1-.1-.1-.1-.1c.3-1 .4-2.1.4-3.1v-95.7c-5.9 4.4-13.1 8.4-21.3 11.8-22.7 9.5-53.8 15.4-88 15.4s-65.3-5.9-88-15.4l-.5-.3c-7.9-3.4-14.9-7.3-20.8-11.6v95.7c0 9.4 10.8 18.7 28.4 26.1l.5.2c20.4 8.6 48.8 13.9 80.4 13.9s60-5.3 80.4-13.9c15.7-6.4 26-14.3 28.5-22.4zm-33.4-181.1c4.5 1.4 8.7 3 12.6 4.6 25 10.5 40.6 25.9 40.9 43.8v.3 6.8c6.5 1.5 13.3 2.8 20.5 3.7 11 1.5 22.8 2.3 35.3 2.3 31.6 0 60-5.3 80.4-13.9 17.8-7.5 28.9-16.8 28.9-26.3v-95.7c-5.9 4.4-13.1 8.4-21.3 11.8-22.7 9.5-53.8 15.4-88 15.4s-65.3-5.9-88-15.4c-8.2-3.4-15.3-7.4-21.3-11.8zm5.1 22.8c-24.6-10.3-54.7-13.9-80.4-13.9-31.6 0-60 5.3-80.4 13.9-17.8 7.5-28.9 16.8-28.9 26.3 0 9.4 10.8 18.7 28.4 26.1l.5.2c20.4 8.6 48.8 13.9 80.4 13.9s60-5.3 80.4-13.9c9.1-3.8 28.9-13.6 28.9-26.3 0-9.5-11.1-18.9-28.9-26.3zm48.5 273.7c7 1.7 14.5 3 22.2 4 10.4 1.3 21.6 2.1 33.5 2.1 31.6 0 60-5.3 80.4-13.9 17.8-7.5 28.9-16.8 28.9-26.3v-87.9c-6 4.4-13.1 8.4-21.3 11.8-22.7 9.5-53.8 15.4-88 15.4-12.3 0-24.4-.8-36-2.3-6.9-.9-13.5-2-19.8-3.3zm0-120.4c7 1.6 14.5 3 22.3 4 10.4 1.3 21.6 2.1 33.5 2.1 31.6 0 60-5.3 80.4-13.9 17.8-7.5 28.9-16.8 28.9-26.3v-87.9c-6 4.4-13.1 8.4-21.3 11.8-22.7 9.5-53.8 15.4-88 15.4-13.1 0-25.8-.9-37.9-2.5-6.2-.8-12.2-1.9-17.9-3.1zm136.2-309.1c-20.4-8.6-48.8-13.9-80.4-13.9s-60 5.3-80.4 13.9c-17.9 7.5-28.9 16.8-28.9 26.3 0 9.4 11 18.8 28.9 26.3 20.4 8.6 48.8 13.9 80.4 13.9s60-5.3 80.4-13.9c17.9-7.5 28.9-16.8 28.9-26.3 0-9.4-10.8-18.7-28.4-26.1z" fill="#fff"/></svg>