<svg enable-background="new 0 0 700 700" viewBox="0 0 700 700" xmlns="http://www.w3.org/2000/svg"><path d="m587.1 282.9c-.1-32-11.2-63.1-31.3-88 6.8-28.5 4.7-58.4-6.1-85.6-2.1-5.2-6.5-9.2-11.9-10.9-7.6-2.6-36.6-7.5-95.5 30.7-25.4-6.7-51.5-9.9-77.7-9.4-26.2-.5-52.4 2.7-77.8 9.4-60.5-39.1-91.9-32.7-98.2-30.9-5.4 1.7-9.8 5.8-11.9 11.1-10.8 27.1-13.1 56.9-6.3 85.3-20.8 24.8-31.9 56.3-31.2 88.6 0 120.7 69.1 157.2 132.4 170-3.3 7.9-5.5 16.3-6.7 24.8-.1.9-.1 1.8 0 2.7v33.4c-57.6 4.8-70-28.9-71.2-32.7-.3-.9-.6-1.8-1-2.6-11.1-22.7-30.7-40.1-54.6-48.6-10-3.3-20.8 2.1-24.2 12.1-3.3 10 2.1 20.8 12.1 24.2 13.2 4.8 24.2 14.2 31 26.5 7.6 24.8 38.9 64 107.6 59.6v31.4c0 10.6 8.5 19.1 19.1 19.1 10.5 0 19.1-8.5 19.1-19.1v-101.7c1.4-11.1 6.3-21.5 13.9-29.8 5.4-5.1 7.4-12.8 5-19.9-2.3-7-8.6-12.1-15.9-12.9-66.6-7.7-128.1-29.7-128.1-137.2-.9-26.2 9.2-51.6 27.9-70.1 5.1-5.5 6.7-13.2 4.4-20.3-6.4-18.7-6.9-38.9-1.2-57.8 23.4 5.3 45.4 15.6 64.5 30.2 5 3.3 11.2 4.1 16.8 2.3 24.3-7.4 49.5-10.8 74.9-10.1 25.3-.7 50.5 2.8 74.8 10.1 5.7 1.8 11.9 1 16.8-2.3 18.4-14.1 39.4-24.3 61.8-30 5.6 19.1 5.1 39.5-1.4 58.4-2.2 6.4-.8 13.5 3.7 18.6 18.1 19.3 28.3 44.6 28.7 71 0 107.3-64.7 129.5-128.1 137.2-7.8.9-14.2 6.4-16.2 14s.8 15.6 7.1 20.2c6.8 5.1 14.6 19.5 14.6 43.7v86.4c0 10.6 8.5 19.1 19.1 19.1s19.1-8.5 19.1-19.1v-86.4c.2-15.2-2.6-30.3-8.2-44.4 51-10.9 130.3-44.6 130.3-170.3z" fill="#fff"/></svg>