<svg enable-background="new 0 0 700 700" viewBox="0 0 700 700" xmlns="http://www.w3.org/2000/svg"><g fill="#fff"><path d="m490 116.7h-280c-24.7 0-48.5 9.9-66 27.4s-27.3 41.2-27.4 66v280c0 24.7 9.9 48.5 27.4 66s41.2 27.3 66 27.4h280c24.7 0 48.5-9.9 66-27.4s27.3-41.2 27.4-66v-280.1c0-24.7-9.9-48.5-27.4-66s-41.3-27.3-66-27.3zm46.7 373.3c0 12.4-4.9 24.2-13.7 33-8.8 8.7-20.6 13.7-33 13.7h-280c-12.4 0-24.2-4.9-33-13.7s-13.7-20.6-13.7-33v-280c0-12.4 4.9-24.2 13.7-33s20.6-13.7 33-13.7h280c12.4 0 24.2 4.9 33 13.7 8.7 8.8 13.7 20.6 13.7 33z"/><path d="m350 245.9c-27.6 0-54.1 11-73.6 30.5s-30.5 46-30.5 73.6 11 54.1 30.5 73.6 46 30.5 73.6 30.5 54.1-11 73.6-30.5 30.5-46 30.5-73.6-11-54.1-30.5-73.6-46-30.5-73.6-30.5zm0 161.5c-15.2 0-29.8-6.1-40.6-16.8-10.8-10.8-16.8-25.4-16.8-40.6s6.1-29.8 16.8-40.6c10.8-10.8 25.4-16.8 40.6-16.8s29.8 6.1 40.6 16.8c10.8 10.8 16.8 25.4 16.8 40.6s-6.1 29.8-16.8 40.6c-10.8 10.8-25.4 16.8-40.6 16.8z"/></g></svg>