<svg enable-background="new 0 0 700 700" viewBox="0 0 700 700" xmlns="http://www.w3.org/2000/svg"><g fill="#fff"><path d="m599.5 595h-20.2v-79.2h19.7c5.8.4 10.7-5.7 8.8-11.2v-408.4c0-4.8-3.9-8.8-8.8-8.8h-350c-4.8 0-8.8 3.9-8.8 8.8v43.8c.1 11.5 17.4 11.4 17.5 0v-35h332.5v382l-81.6-73.5c-3.3-3-8.4-3-11.7 0l-96.7 87.1c-5.9 5-1.9 15.5 5.9 15.3h20.2v35.4h-168.5v-26.3c0-4.8-3.9-8.8-8.8-8.8s-8.8 3.9-8.8 8.8v35c0 4.8 3.9 8.8 8.8 8.8h177.3v26.2h-20.2c-11.4 0-11.5 17.5 0 17.5h67.7 96.8 29c11.3 0 11.4-17.5-.1-17.5zm-96.7-163.2 73.9 66.5h-147.8zm-37.8 84v79.2h-21.2v-79.2zm17.5 0h40.6v79.2h-40.6zm58.1 0h21.2v79.2h-21.2z"/><path d="m167.6 411.9h40.1c11.4 0 11.4-17.5 0-17.5h-19.9v-8.4c0-4.8-3.9-8.8-8.8-8.8s-8.8 3.9-8.8 8.8v8.4c-35.9-2.1-38.7 50.5-2.7 51.9h22.9c7.3-.2 11.3 9.4 5.9 14.4-1.6 1.6-3.7 2.5-5.9 2.5h-40.1c-11.4 0-11.4 17.5 0 17.5h19.9v8.4c0 4.8 3.9 8.8 8.8 8.8s8.8-3.9 8.8-8.8v-8.4c35.9 2.1 38.7-50.5 2.7-51.9h-22.9c-11-.1-11-16.9 0-16.9z"/><path d="m256.8 477.5c8.1-15.6 11.3-33.8 9-51.3h112.9c16.5 0 29.9-13.4 29.9-29.8v-64.9c13.5-1.5 24.1-12.9 24.1-26.8v-54.1c0-15-12.2-27.2-27.2-27.2h-77.5v-30.3c0-10-8.2-18.1-18.2-18.1h-77.8c-10 0-18.2 8.1-18.2 18.1v30.3h-77.5c-15 0-27.2 12.2-27.2 27.2v54.1c0 13.9 10.6 25.3 24.1 26.8v31.7c-74.5 46.3-41.9 161.3 45.8 161.8 32.9 0 62.7-18.2 77.8-47.5zm134.3-81.1c0 6.7-5.7 12.3-12.4 12.3h-117c-15-44.8-66.6-69.9-111-54v-22.9h72.5c12 50.3 83.3 50 95.5 0h72.5zm-91.4-63.1c-10.2 25.5-49.4 24.7-58.1-1.5h58.7c-.2.5-.4 1-.6 1.5zm-68.4-140.2c0-.3.3-.6.7-.6h77.9c.4 0 .7.3.7.6v30.3h-79.3zm-104.8 111.6v-54.1c0-5.3 4.4-9.7 9.7-9.7h86.3 183.1c5.4 0 9.7 4.4 9.7 9.7v54.1c0 5.3-4.4 9.6-9.7 9.6h-5.7-88.8-169.2-5.7c-5.3 0-9.7-4.3-9.7-9.6zm52.5 202.8c-38.6 0-70-31.4-70-70 .1-72.7 98.9-96.9 132.3-31.9 24.6 44.2-11.7 103.6-62.3 101.9z"/><path d="m546.5 157.5h-122.5c-11.4 0-11.5 17.5 0 17.5h122.5c11.4 0 11.5-17.5 0-17.5z"/><path d="m546.5 210h-61.2c-11.4 0-11.5 17.5 0 17.5h61.2c11.4 0 11.5-17.5 0-17.5z"/></g></svg>